<?xml version="1.0" encoding="UTF-8" standalone="no"?>
<svg width="32px" height="32px" viewBox="0 0 32 32" version="1.1" xmlns="http://www.w3.org/2000/svg" xmlns:xlink="http://www.w3.org/1999/xlink">
    <!-- Generator: Sketch 39 (31667) - http://www.bohemiancoding.com/sketch -->
    <title>Classic</title>
    <desc>Created with Sketch.</desc>
    <defs></defs>
    <g id="Page-1" stroke="none" stroke-width="1" fill="none" fill-rule="evenodd">
        <path d="M32,6 C32,2.6875 29.3125,0 26,0 L6,0 C2.6875,0 0,2.6875 0,6 L0,26 C0,29.3125 2.6875,32 6,32 L26,32 C29.3125,32 32,29.3125 32,26 L32,6 Z M17.3789062,9.52734375 C15.7838462,9.52734375 14.5488325,10.1266216 13.6738281,11.3251953 C12.7988237,12.523769 12.3613281,14.1939997 12.3613281,16.3359375 C12.3613281,20.792991 14.0338374,23.0214844 17.3789062,23.0214844 C18.7825591,23.0214844 20.4824119,22.6705764 22.4785156,21.96875 L22.4785156,25.5234375 C20.8378824,26.2070347 19.0058695,26.5488281 16.9824219,26.5488281 C14.0748553,26.5488281 11.8509192,25.667001 10.3105469,23.9033203 C8.77017459,22.1396396 8,19.6080894 8,16.3085938 C8,14.2304584 8.37825143,12.4098385 9.13476562,10.8466797 C9.89127982,9.28352083 10.978183,8.08496511 12.3955078,7.25097656 C13.8128326,6.41698802 15.4739488,6 17.3789062,6 C19.3203222,6 21.2708235,6.46939635 23.2304688,7.40820312 L21.8632812,10.8535156 C21.1158817,10.4980451 20.3639361,10.1881524 19.6074219,9.92382812 C18.8509077,9.65950389 18.1080766,9.52734375 17.3789062,9.52734375 Z" id="Classic" fill="#000000"></path>
    </g>
</svg>
