<?xml version="1.0" encoding="UTF-8" standalone="no"?>
<svg width="32px" height="32px" viewBox="0 0 32 32" version="1.1" xmlns="http://www.w3.org/2000/svg" xmlns:xlink="http://www.w3.org/1999/xlink">
    <!-- Generator: Sketch 39 (31667) - http://www.bohemiancoding.com/sketch -->
    <title>Modern</title>
    <desc>Created with Sketch.</desc>
    <defs></defs>
    <g id="Page-1" stroke="none" stroke-width="1" fill="none" fill-rule="evenodd">
        <path d="M32,6 C32,2.6875 29.3125,0 26,0 L6,0 C2.6875,0 0,2.6875 0,6 L0,26 C0,29.3125 2.6875,32 6,32 L26,32 C29.3125,32 32,29.3125 32,26 L32,6 Z M13.7340296,25.9899998 L8.76734396,10.3070109 L8.64035484,10.3070109 C8.81908116,13.4974053 8.90844298,15.6258222 8.90844298,16.6923255 L8.90844298,25.9899998 L5,25.9899998 L5,6 L10.9543788,6 L15.8364051,21.2864704 L15.9210645,21.2864704 L21.0993987,6 L27.0537776,6 L27.0537776,25.9899998 L22.9760157,25.9899998 L22.9760157,16.5282489 C22.9760157,16.0815936 22.9830706,15.5665806 22.9971806,14.9831942 C23.0112906,14.3998077 23.0747845,12.8502109 23.1876643,10.334357 L23.0606752,10.334357 L17.7412419,25.9899998 L13.7340296,25.9899998 Z" id="Modern" fill="#000000"></path>
    </g>
</svg>
